<?xml version="1.0" standalone="no"?>
<!DOCTYPE svg PUBLIC "-//W3C//DTD SVG 20010904//EN"
 "http://www.w3.org/TR/2001/REC-SVG-20010904/DTD/svg10.dtd">
<svg version="1.0" xmlns="http://www.w3.org/2000/svg"
 width="100.000000pt" height="100.000000pt" viewBox="0 0 100.000000 100.000000"
 preserveAspectRatio="xMidYMid meet">
<metadata>
Created by potrace 1.14, written by Peter Selinger 2001-2017
</metadata>
<g transform="translate(0.000000,100.000000) scale(0.100000,-0.100000)"
fill="#000000" stroke="none">
<path d="M152 959 c-18 -11 -31 -15 -27 -10 3 6 -19 -3 -50 -19 -31 -16 -52
-24 -48 -17 4 7 1 7 -10 -2 -15 -12 -17 -51 -17 -432 l0 -418 22 -15 c20 -14
82 -16 484 -16 434 0 462 1 477 18 15 17 17 63 17 455 0 424 -1 438 -20 457
-19 19 -33 20 -407 19 -366 0 -390 -2 -421 -20z m304 -194 c10 -48 9 -67 -3
-107 -8 -27 -13 -54 -11 -60 2 -6 53 39 114 100 60 62 112 112 116 112 10 0
-30 -108 -56 -148 -13 -20 -49 -61 -80 -90 l-57 -54 31 -34 c16 -19 60 -63 97
-97 113 -105 107 -97 79 -97 -14 0 -28 5 -31 10 -4 6 -12 9 -19 8 -25 -6 -115
53 -164 107 -57 62 -67 60 -81 -22 -31 -172 -45 -217 -55 -173 -7 27 -26 148
-27 165 0 6 9 41 20 80 27 89 26 98 -4 126 -33 32 -31 39 5 29 35 -10 34 -11
50 65 7 33 16 65 20 70 4 6 11 25 15 43 10 48 28 34 41 -33z"/>
</g>
</svg>
